<?xml version="1.0" encoding="iso-8859-1"?>
<!-- Generator: Adobe Illustrator 19.0.0, SVG Export Plug-In . SVG Version: 6.00 Build 0)  -->
<svg version="1.1" id="Layer_1" xmlns="http://www.w3.org/2000/svg" xmlns:xlink="http://www.w3.org/1999/xlink" x="0px"
     y="0px"
     viewBox="0 0 512 512" style="enable-background:new 0 0 512 512;" xml:space="preserve">
<g>
	<g>
		<path d="M490.667,96H21.333C9.536,96,0,105.557,0,117.333v277.333C0,406.443,9.536,416,21.333,416h469.333
			c11.797,0,21.333-9.557,21.333-21.333V117.333C512,105.557,502.464,96,490.667,96z M170.667,266.667h-64
			c-11.797,0-21.333-9.557-21.333-21.333S94.869,224,106.667,224h64c11.797,0,21.333,9.557,21.333,21.333
			S182.464,266.667,170.667,266.667z M192,202.667h-85.333c-11.797,0-21.333-9.557-21.333-21.333S94.869,160,106.667,160H192
			c11.797,0,21.333,9.557,21.333,21.333S203.797,202.667,192,202.667z M441.749,196.416l-36.416,36.416v76.501
			c0,11.776-9.536,21.333-21.333,21.333c-11.797,0-21.333-9.557-21.333-21.333v-33.835l-70.251,70.251
			c-4.16,4.16-9.621,6.251-15.083,6.251c-5.461,0-10.923-2.091-15.083-6.251l-42.667-42.667c-8.341-8.341-8.341-21.824,0-30.165
			c8.341-8.341,21.824-8.341,30.165,0l27.584,27.584l55.168-55.168h-33.835c-11.797,0-21.333-9.557-21.333-21.333
			s9.536-21.333,21.333-21.333h76.501l36.416-36.416c8.341-8.341,21.824-8.341,30.165,0
			C450.091,174.592,450.091,188.075,441.749,196.416z"/>
	</g>
</g>
    <g>
</g>
    <g>
</g>
    <g>
</g>
    <g>
</g>
    <g>
</g>
    <g>
</g>
    <g>
</g>
    <g>
</g>
    <g>
</g>
    <g>
</g>
    <g>
</g>
    <g>
</g>
    <g>
</g>
    <g>
</g>
    <g>
</g>
</svg>
